<svg width="38" height="39" viewBox="0 0 38 39" fill="none" xmlns="http://www.w3.org/2000/svg">
<g filter="url(#filter0_d_551_3177)">
<path fill-rule="evenodd" clip-rule="evenodd" d="M12.1451 20.3758C12.3471 20.9731 12.024 21.6201 11.4235 21.8209C9.47921 22.4713 8.44589 24.0947 7.89317 25.7457C7.6737 26.4012 7.5411 27.0323 7.46143 27.5541C7.98606 27.4749 8.62055 27.343 9.27963 27.1247C10.9394 26.5749 12.5716 25.5471 13.2255 23.6132C13.4274 23.016 14.0778 22.6946 14.6783 22.8954C15.2787 23.0963 15.6018 23.7433 15.3999 24.3405C14.4192 27.2412 11.9937 28.6308 10.0044 29.2897C8.99953 29.6225 8.05876 29.7868 7.37209 29.8688C7.02709 29.9099 6.74187 29.9308 6.53925 29.9414C6.43782 29.9467 6.35677 29.9495 6.29891 29.9509C6.26997 29.9516 6.24681 29.952 6.22976 29.9522L6.20882 29.9524L6.20187 29.9524L6.19929 29.9524L6.19822 29.9524C6.19775 29.9524 6.1973 29.9524 6.1973 28.8115C5.05025 28.8115 5.05025 28.8111 5.05026 28.8106L5.05026 28.8095L5.05026 28.807L5.05029 28.8001L5.05049 28.7792C5.05069 28.7623 5.05108 28.7392 5.05179 28.7104C5.05323 28.6529 5.056 28.5723 5.06133 28.4714C5.072 28.2698 5.09298 27.9862 5.13437 27.643C5.21674 26.96 5.38195 26.0243 5.71659 25.0247C6.37902 23.0461 7.77602 20.6335 10.6923 19.6581C11.2928 19.4572 11.9432 19.7786 12.1451 20.3758ZM6.1973 28.8115H5.05025C5.05025 29.4416 5.56381 29.9524 6.1973 29.9524V28.8115Z" fill="#8381D9"/>
<path fill-rule="evenodd" clip-rule="evenodd" d="M31.1874 3.95483C29.856 3.76384 26.5787 3.69189 23.2247 7.02796L14.3002 15.9048L19.1732 20.7517L28.0977 11.8749C31.4517 8.53884 31.3794 5.27912 31.1874 3.95483ZM31.52 1.6971C29.6889 1.43342 25.6073 1.43113 21.6026 5.41446L11.867 15.098C11.6519 15.312 11.531 15.6022 11.531 15.9048C11.531 16.2074 11.6519 16.4976 11.867 16.7115L18.3621 23.172C18.8101 23.6175 19.5364 23.6175 19.9843 23.172L29.7199 13.4884C33.7246 9.5051 33.7223 5.44526 33.4572 3.62398C33.3901 3.13654 33.1645 2.68425 32.8146 2.33626C32.4648 1.98828 32.0101 1.76383 31.52 1.6971Z" fill="#8381D9"/>
<path fill-rule="evenodd" clip-rule="evenodd" d="M27.2885 13.1521C27.922 13.1521 28.4356 13.6629 28.4356 14.293V23.506L28.4354 23.5222C28.4269 24.1215 28.1816 24.6932 27.7528 25.114L23.1238 29.7325C22.8299 30.0245 22.4619 30.2316 22.059 30.3318C21.656 30.432 21.2333 30.4215 20.8359 30.3015C20.4385 30.1814 20.0813 29.9563 19.8024 29.6502C19.5238 29.3442 19.3338 28.9689 19.2527 28.564C19.2526 28.5637 19.2528 28.5643 19.2527 28.564L18.0485 22.5893C17.9239 21.9715 18.3265 21.3702 18.9477 21.2464C19.5688 21.1225 20.1733 21.5229 20.2978 22.1408L21.5026 28.1181L26.1415 23.4897V14.293C26.1415 13.6629 26.655 13.1521 27.2885 13.1521Z" fill="#8381D9"/>
<path fill-rule="evenodd" clip-rule="evenodd" d="M11.5147 6.69189L11.531 6.69177H20.7935C21.4269 6.69177 21.9405 7.20258 21.9405 7.83269C21.9405 8.46281 21.4269 8.97361 20.7935 8.97361H11.5473L11.538 8.98302L11.5379 8.98297L6.8941 13.5877L6.89588 13.5881L12.9035 14.786C13.5247 14.9099 13.9273 15.5111 13.8027 16.129C13.6782 16.7468 13.0737 17.1472 12.4526 17.0234L6.44672 15.8258C6.44637 15.8257 6.44603 15.8256 6.44568 15.8255C6.03871 15.7449 5.66136 15.5559 5.35382 15.2788C5.04602 15.0014 4.8197 14.6461 4.699 14.2508C4.5783 13.8555 4.56776 13.4351 4.6685 13.0343C4.76924 12.6335 4.97747 12.2674 5.27099 11.9751L5.27271 11.9734L5.27271 11.9734L9.91432 7.37087C10.3374 6.94439 10.9122 6.70042 11.5147 6.69189Z" fill="#8381D9"/>
</g>
<defs>
<filter id="filter0_d_551_3177" x="-1" y="0" width="40" height="40" filterUnits="userSpaceOnUse" color-interpolation-filters="sRGB">
<feFlood flood-opacity="0" result="BackgroundImageFix"/>
<feColorMatrix in="SourceAlpha" type="matrix" values="0 0 0 0 0 0 0 0 0 0 0 0 0 0 0 0 0 0 127 0" result="hardAlpha"/>
<feOffset dy="4"/>
<feGaussianBlur stdDeviation="2"/>
<feComposite in2="hardAlpha" operator="out"/>
<feColorMatrix type="matrix" values="0 0 0 0 0 0 0 0 0 0 0 0 0 0 0 0 0 0 0.25 0"/>
<feBlend mode="normal" in2="BackgroundImageFix" result="effect1_dropShadow_551_3177"/>
<feBlend mode="normal" in="SourceGraphic" in2="effect1_dropShadow_551_3177" result="shape"/>
</filter>
</defs>
</svg>
