<svg width="32" height="32" viewBox="0 0 32 32" fill="none" xmlns="http://www.w3.org/2000/svg">
<g opacity="0.9">
<path d="M23 27.3L22.4 26.8C20.4 24.9 19 23.7 19 22.2C19 21 20 20 21.2 20C21.9 20 22.6 20.3 23 20.8C23.4 20.3 24.1 20 24.8 20C26 20 27 20.9 27 22.2C27 23.7 25.6 24.9 23.6 26.8L23 27.3Z" fill="#50B2C0"/>
<path d="M22 6C23.1 6 24 6.9 24 8V17.08L23 17L22 17.08V8H17V16L14.5 13.75L12 16V8H10V24H17.08C17.2 24.72 17.45 25.39 17.8 26H10C8.9 26 8 25.1 8 24V8C8 6.9 8.9 6 10 6H22Z" fill="#8381D9"/>
</g>
</svg>
